# xmcd
#
# Track frame offsets:
#	150
#	12231
#	22144
#	33811
#	47611
#	61554
#	78979
#	93383
#	109145
#	127129
#	142223
#	155989
#	171284
#	184956
#	195980
#	221875
#
# Disc length: 3428 seconds
#
# Revision: 1
# Processed by: cddbd v1.5.2PL0 Copyright (c) Steve Scherf et al.
# Submitted via: audiograbber 1.83.01
#
DISCID=e40d6210
DTITLE=Classic Country - ASK62
DYEAR=1900
DGENRE=Karaoke
TTITLE0=Owens, Buck - Together Again
TTITLE1=Pride, Charley - Is Anybody Goin' To San Antone
TTITLE2=Rich, Charlie - She Called Me Baby
TTITLE3=Rich, Charlie - Most Beautiful Girl, The
TTITLE4=Twitty, Conway - Between Blue Eyes And Jeans
TTITLE5=Twitty, Conway - Crazy In Love
TTITLE6=Twitty, Conway - Linda On My Mind
TTITLE7=Watson, Gene - Love In The Hot Afternoon
TTITLE8=Jones, George - 50,000 Names
TTITLE9=Jones, George And Tammy Wynette - Golden Ring
TTITLE10=Campbell, Glen - Southern Nights
TTITLE11=Campbell, Glen - Witchita Lineman
TTITLE12=Williams, Hank Sr. - Jambalaya (On The Bayou)
TTITLE13=Reeves, Jim - He'll Have To Go
TTITLE14=Cash, Johnny - Don't Take Your Guns To Town
TTITLE15=Data Track - Data Track
EXTD=
EXTT0=
EXTT1=
EXTT2=
EXTT3=
EXTT4=
EXTT5=
EXTT6=
EXTT7=
EXTT8=
EXTT9=
EXTT10=
EXTT11=
EXTT12=
EXTT13=
EXTT14=
EXTT15=
PLAYORDER=
